HIERARCHY
ROOT hip
{
  OFFSET 0 0 0
  CHANNELS 6 Xposition Yposition Zposition Zrotation Yrotation Xrotation
  JOINT abdomen
  {
    OFFSET 0 20.6881 -0.73152
    CHANNELS 3 Zrotation Xrotation Yrotation
    JOINT chest
    {
      OFFSET 0 11.7043 -0.48768
      CHANNELS 3 Zrotation Xrotation Yrotation
      JOINT neck
      {
        OFFSET 0 22.1894 -2.19456
        CHANNELS 3 Zrotation Xrotation Yrotation
        JOINT head
        {
          OFFSET -0.24384 7.07133 1.2192
          CHANNELS 3 Zrotation Xrotation Yrotation
          JOINT leftEye
          {
            OFFSET 4.14528 8.04674 8.04672
            CHANNELS 3 Zrotation Xrotation Yrotation
            End Site
            {
              OFFSET 1 0 0
            }
          }
          JOINT rightEye
          {
            OFFSET -3.6576 8.04674 8.04672
            CHANNELS 3 Zrotation Xrotation Yrotation
            End Site
            {
              OFFSET 1 0 0
            }
          }
        }
      }
      JOINT rCollar
      {
        OFFSET -2.68224 19.2634 -4.8768
        CHANNELS 3 Zrotation Xrotation Yrotation
        JOINT rShldr
        {
          OFFSET -8.77824 -1.95073 1.46304
          CHANNELS 3 Zrotation Xrotation Yrotation
          JOINT rForeArm
          {
            OFFSET -28.1742 -1.7115 0.48768
            CHANNELS 3 Zrotation Xrotation Yrotation
            JOINT rHand
            {
              OFFSET -22.5879 0.773209 7.07136
              CHANNELS 3 Zrotation Xrotation Yrotation
              JOINT rThumb1
              {
                OFFSET -1.2192 -0.487915 3.41376
                CHANNELS 3 Zrotation Xrotation Yrotation
                JOINT rThumb2
                {
                  OFFSET -3.37035 -0.52449 3.41376
                  CHANNELS 3 Zrotation Xrotation Yrotation
                  End Site
                  {
                    OFFSET -1.78271 -1.18214 1.43049
                  }
                }
              }
              JOINT rIndex1
              {
                OFFSET -7.75947 0.938293 5.60832
                CHANNELS 3 Zrotation Xrotation Yrotation
                JOINT rIndex2
                {
                  OFFSET -2.54057 -0.884171 1.56538
                  CHANNELS 3 Zrotation Xrotation Yrotation
                  End Site
                  {
                    OFFSET -1.62519 -0.234802 1.16502
                  }
                }
              }
              JOINT rMid1
              {
                OFFSET -8.24714 1.18213 3.41376
                CHANNELS 3 Zrotation Xrotation Yrotation
                JOINT rMid2
                {
                  OFFSET -3.10165 -0.590103 1.0647
                  CHANNELS 3 Zrotation Xrotation Yrotation
                  End Site
                  {
                    OFFSET -2.48547 -0.328903 0.83742
                  }
                }
              }
              JOINT rRing1
              {
                OFFSET -8.82822 0.546677 1.51678
                CHANNELS 3 Zrotation Xrotation Yrotation
                JOINT rRing2
                {
                  OFFSET -2.60934 -0.819778 -0.0198488
                  CHANNELS 3 Zrotation Xrotation Yrotation
                  End Site
                  {
                    OFFSET -2.33842 -0.294052 0.168128
                  }
                }
              }
              JOINT rPinky1
              {
                OFFSET -8.27202 -0.0477905 -0.4584
                CHANNELS 3 Zrotation Xrotation Yrotation
                JOINT rPinky2
                {
                  OFFSET -1.82734 -0.647385 -0.700984
                  CHANNELS 3 Zrotation Xrotation Yrotation
                  End Site
                  {
                    OFFSET -1.69225 -0.51767 -0.607171
                  }
                }
              }
            }
          }
        }
      }
      JOINT lCollar
      {
        OFFSET 2.68224 19.2634 -4.8768
        CHANNELS 3 Zrotation Xrotation Yrotation
        JOINT lShldr
        {
          OFFSET 8.77824 -1.95073 1.46304
          CHANNELS 3 Zrotation Xrotation Yrotation
          JOINT lForeArm
          {
            OFFSET 28.1742 -1.7115 0.48768
            CHANNELS 3 Zrotation Xrotation Yrotation
            JOINT lHand
            {
              OFFSET 22.5879 0.773209 7.07136
              CHANNELS 3 Zrotation Xrotation Yrotation
              JOINT lThumb1
              {
                OFFSET 1.2192 -0.487915 3.41376
                CHANNELS 3 Zrotation Xrotation Yrotation
                JOINT lThumb2
                {
                  OFFSET 3.37035 -0.52449 3.41376
                  CHANNELS 3 Zrotation Xrotation Yrotation
                  End Site
                  {
                    OFFSET 1.78271 -1.18214 1.43049
                  }
                }
              }
              JOINT lIndex1
              {
                OFFSET 7.75947 0.938293 5.60832
                CHANNELS 3 Zrotation Xrotation Yrotation
                JOINT lIndex2
                {
                  OFFSET 2.54057 -0.884171 1.56538
                  CHANNELS 3 Zrotation Xrotation Yrotation
                  End Site
                  {
                    OFFSET 1.62519 -0.234802 1.16502
                  }
                }
              }
              JOINT lMid1
              {
                OFFSET 8.24714 1.18213 3.41376
                CHANNELS 3 Zrotation Xrotation Yrotation
                JOINT lMid2
                {
                  OFFSET 3.10165 -0.590103 1.0647
                  CHANNELS 3 Zrotation Xrotation Yrotation
                  End Site
                  {
                    OFFSET 2.48547 -0.328903 0.83742
                  }
                }
              }
              JOINT lRing1
              {
                OFFSET 8.82822 0.546677 1.51678
                CHANNELS 3 Zrotation Xrotation Yrotation
                JOINT lRing2
                {
                  OFFSET 2.60934 -0.819778 -0.0198488
                  CHANNELS 3 Zrotation Xrotation Yrotation
                  End Site
                  {
                    OFFSET 2.33842 -0.294052 0.168128
                  }
                }
              }
              JOINT lPinky1
              {
                OFFSET 8.27202 -0.0477905 -0.4584
                CHANNELS 3 Zrotation Xrotation Yrotation
                JOINT lPinky2
                {
                  OFFSET 1.82734 -0.647385 -0.700984
                  CHANNELS 3 Zrotation Xrotation Yrotation
                  End Site
                  {
                    OFFSET 1.69225 -0.51767 -0.607171
                  }
                }
              }
            }
          }
        }
      }
    }
  }
  JOINT rButtock
  {
    OFFSET -8.77824 4.35084 1.2192
    CHANNELS 3 Zrotation Xrotation Yrotation
    JOINT rThigh
    {
      OFFSET 0 -1.70687 -2.19456
      CHANNELS 3 Zrotation Xrotation Yrotation
      JOINT rShin
      {
        OFFSET 0 -36.8199 0.73152
        CHANNELS 3 Zrotation Xrotation Yrotation
        JOINT rFoot
        {
          OFFSET 0.73152 -45.1104 -5.12064
          CHANNELS 3 Zrotation Xrotation Yrotation
          End Site
          {
            OFFSET -1.1221 -3.69964 12.103
          }
        }
      }
    }
  }
  JOINT lButtock
  {
    OFFSET 8.77824 4.35084 1.2192
    CHANNELS 3 Zrotation Xrotation Yrotation
    JOINT lThigh
    {
      OFFSET 0 -1.70687 -2.19456
      CHANNELS 3 Zrotation Xrotation Yrotation
      JOINT lShin
      {
        OFFSET 0 -36.8199 0.73152
        CHANNELS 3 Zrotation Xrotation Yrotation
        JOINT lFoot
        {
          OFFSET -0.73152 -45.1104 -5.12064
          CHANNELS 3 Zrotation Xrotation Yrotation
          End Site
          {
            OFFSET 1.1221 -3.69964 12.103
          }
        }
      }
    }
  }
}
MOTION
Frames:	4
Frame Time:	0.00833333
5.74586 85.0114 -199.722 0.0 0.0 0.0 0.0256067 -6.19298e-06 0.000728849 0.00706488 8.62963e-06 0.00122384 1.55856e-16 -1.59028e-15 4.65902e-18 4.7522e-16 -6.36111e-15 1.55301e-17 -0.0 0.0 0.0 -0.0 0.0 0.0 1.47767e-16 0.0 2.48481e-16 3.55357e-15 -1.86361e-16 5.96354e-16 3.01656e-14 -9.74045e-15 1.27222e-14 3.25218e-13 1.88845e-15 -1.59028e-14 7.68181e-13 -1.29083e-14 1.59028e-14 1.31914e-12 -1.90833e-14 3.26007e-14 7.74465e-13 -9.54166e-15 6.36111e-15 7.73091 5.47488 0.417314 7.67458e-13 -1.28216e-14 1.59028e-14 2.90554 0.965183 0.102902 7.71993e-13 -1.27222e-14 2.38542e-14 10.2786 0.731801 0.0259123 7.64526e-13 -1.19271e-14 3.49861e-14 2.22167 -0.733487 -0.20892 5.10224e-17 3.88251e-19 -2.48481e-16 -3.73595e-16 -2.79541e-16 -5.96354e-16 2.58917e-14 7.7526e-15 -3.18055e-15 3.2705e-13 -1.36416e-14 2.54444e-14 7.6772e-13 -8.93293e-15 2.8625e-14 1.33265e-12 -1.27222e-14 5.1684e-14 7.6055e-13 -5.96354e-15 3.81667e-14 -7.73091 5.47488 -0.417314 7.67458e-13 -8.64713e-15 2.54444e-14 -2.90554 0.965183 -0.102902 7.6214e-13 -8.84592e-15 2.38542e-14 -10.2786 0.731801 -0.0259123 7.66712e-13 -6.36111e-15 1.59028e-14 -2.22167 -0.733487 0.20892 -2.03217e-16 0.0 -3.88251e-19 0.512296 -3.13364 -0.0420884 -0.00562799 0.123101 -0.0495521 -0.492795 3.00963 0.117359 2.03217e-16 0.0 3.88251e-19 -0.473329 -3.03453 0.0397105 0.00592201 -0.0564357 0.0521752 0.492509 3.09005 -0.118956
7.43041 81.6271 -201.147 6.5318 -0.6872 11.8117 -1.99235 1.62512 -3.16491 3.76948 -2.2222 -0.642926 -3.95592 0.345102 0.576923 2.61157 -5.26837 2.5999 -0.0 0.0 0.0 -0.0 0.0 0.0 7.60388e-14 1.67032e-13 1.35771e-14 18.0572 15.4 -10.9298 -25.8835 -23.611 14.1471 0.0248595 -3.50024 -0.488622 -5.56884e-11 4.41968e-11 -7.26626e-11 -9.57567e-11 7.59338e-11 -1.26019e-10 -5.56805e-11 4.41982e-11 -7.26724e-11 7.73091 5.47488 0.417314 -5.56889e-11 4.41969e-11 -7.26634e-11 2.90554 0.965183 0.102902 -5.56832e-11 4.41972e-11 -7.26579e-11 10.2786 0.731801 0.0259123 -5.56915e-11 4.41982e-11 -7.26496e-11 2.22167 -0.733487 -0.20892 7.59201e-14 1.67026e-13 1.31606e-14 -24.5577 9.70013 0.020042 -4.05996 13.3744 44.3118 -0.10996 -7.37108 1.0053 9.05881e-10 -1.90052e-09 -2.42953e-10 1.56921e-09 -3.2687e-09 -4.00325e-10 9.05871e-10 -1.90051e-09 -2.42939e-10 -7.73091 5.47488 -0.417314 9.05881e-10 -1.90052e-09 -2.42956e-10 -2.90554 0.965183 -0.102902 9.05877e-10 -1.90052e-09 -2.42957e-10 -10.2786 0.731801 -0.0259123 9.05884e-10 -1.90051e-09 -2.42965e-10 -2.22167 -0.733487 0.20892 -2.03217e-16 0.0 -3.88251e-19 -0.391708 -20.2125 0.31519 0.00982264 17.393 0.192289 -0.44207 2.24024 0.05494 2.03217e-16 0.0 3.88251e-19 -3.61824 -1.3146 0.210192 -0.0621842 6.71747 -0.169724 0.50945 8.42481 0.266867
6.1312 81.5462 -198.726 3.7683 -11.4321 15.7023 -3.96899 3.31152 -6.51799 7.73608 -4.5659 -1.32447 -8.15122 0.72891 1.19555 5.89271 -10.8247 5.43694 -0.0 0.0 0.0 -0.0 0.0 0.0 1.58204e-13 3.49072e-13 2.68049e-14 44.1598 29.7873 -25.1088 -37.0546 -43.1347 37.8991 -0.0142093 -7.18721 -1.00952 -1.1069e-10 7.4082e-11 -1.32564e-10 -1.90464e-10 1.27482e-10 -2.29919e-10 -1.10681e-10 7.40815e-11 -1.32574e-10 7.73091 5.47488 0.417314 -1.10691e-10 7.40822e-11 -1.32566e-10 2.90554 0.965183 0.102902 -1.10684e-10 7.40826e-11 -1.32563e-10 10.2786 0.731801 0.0259123 -1.10693e-10 7.40837e-11 -1.32558e-10 2.22167 -0.733487 -0.20892 1.5806e-13 3.49059e-13 2.64725e-14 -50.5374 19.9261 0.0163418 -19.9747 1.17255 88.4882 0.0640649 -15.1268 2.1209 1.89072e-09 -3.95088e-09 -4.97182e-10 3.27493e-09 -6.79454e-09 -8.18411e-10 1.8907e-09 -3.95087e-09 -4.97164e-10 -7.73091 5.47488 -0.417314 1.89072e-09 -3.95088e-09 -4.97185e-10 -2.90554 0.965183 -0.102902 1.89071e-09 -3.95088e-09 -4.97185e-10 -10.2786 0.731801 -0.0259123 1.89072e-09 -3.95088e-09 -4.97194e-10 -2.22167 -0.733487 0.20892 -2.03217e-16 0.0 -3.88251e-19 -1.04484 -38.3573 0.86385 -0.166549 35.9418 0.53913 -0.395223 1.37723 -0.0793905 2.03217e-16 0.0 3.88251e-19 -6.93421 0.360615 0.453184 -0.0762978 14.0167 -0.416493 0.432878 13.8175 0.838514
5.95692 81.9085 -195.176 3.6124 -12.9152 15.8553 -5.49064 4.81579 -9.52632 11.1436 -6.66325 -1.9429 -11.8886 1.03489 1.73102 9.31114 -15.6724 8.06859 -0.0 0.0 0.0 -0.0 0.0 0.0 2.27821e-13 5.01095e-13 4.02345e-14 74.7057 38.539 -42.0569 -31.2288 -48.0923 69.8187 -0.107097 -10.4976 -1.48804 -1.68602e-10 1.32616e-10 -2.18019e-10 -2.89908e-10 2.2784e-10 -3.78121e-10 -1.68591e-10 1.32614e-10 -2.1803e-10 7.73091 5.47488 0.417314 -1.68602e-10 1.32616e-10 -2.18022e-10 2.90554 0.965183 0.102902 -1.68594e-10 1.32617e-10 -2.18021e-10 10.2786 0.731801 0.0259123 -1.68604e-10 1.32618e-10 -2.18019e-10 2.22167 -0.733487 -0.20892 2.27658e-13 5.01076e-13 3.99786e-14 -73.6958 29.1004 0.0678284 -22.358 -30.6743 114.403 0.497943 -22.0849 3.22805 2.71611e-09 -5.70153e-09 -7.28915e-10 4.70497e-09 -9.80608e-09 -1.20108e-09 2.71609e-09 -5.70151e-09 -7.28894e-10 -7.73091 5.47488 -0.417314 2.71611e-09 -5.70153e-09 -7.28918e-10 -2.90554 0.965183 -0.102902 2.71611e-09 -5.70153e-09 -7.28918e-10 -10.2786 0.731801 -0.0259123 2.71612e-09 -5.70153e-09 -7.28928e-10 -2.22167 -0.733487 0.20892 -2.03217e-16 0.0 -3.88251e-19 -1.17596 -54.3596 1.66722 -0.615994 51.9285 1.05347 -0.345646 0.701452 -0.069706 2.03217e-16 0.0 3.88251e-19 -9.93879 2.12514 0.551479 -0.0326228 20.2642 -0.650276 0.317082 19.0914 1.08946
